<svg version="1.1" id="Capa_1" xmlns="http://www.w3.org/2000/svg" x="0" y="0" viewBox="0 0 496 496" xml:space="preserve"><path d="M434.856 286.648C470.864 270.272 496 234.056 496 192c0-57.344-46.656-104-104-104-5.72 0-11.376.64-16.992 1.56C372.176 79.464 362.992 72 352 72h-32c-22.056 0-40 17.944-40 40v160c0 17.76 11.712 32.68 27.76 37.88C295.136 326.488 288 346.928 288 368v40.888l-72-61.712V240c0-13.232-10.768-24-24-24v-80c0-22.056-17.944-40-40-40h-24V80h-19.176l12.712-14.832-13.752-27.496-60.76 26.04L39.064 0H0v496h64V232H41.224l5.68-39.768 60.872 26.088 13.752-27.496L72 133.04V128h56v-16h24c13.232 0 24 10.768 24 24v80c-13.232 0-24 10.768-24 24v192c0 13.232 10.768 24 24 24h16c9.888 0 18.384-6.008 22.056-14.568l49.256 42.688A48.655 48.655 0 00295.16 496h.016c.272 0 .544-.032.824-.04v.04h184V368c0-33.392-17.56-64.04-45.144-81.352zM48 248v232H16V248h32zm8-130.96v21.92l46.472 54.208-2.248 4.504L49.64 176H33.064l-8 56H16V16h8.936l8 64H49.64l50.576-21.672 2.248 4.504L56 117.04zm56-5.04H81.392l13.712-16H112v16zm264-6.376c5.272-.968 10.6-1.624 16-1.624 48.52 0 88 39.472 88 88 0 29.8-14.928 56.144-37.664 72.072L431.56 257.6c-12.552-7.528-21-20.448-23.064-34.752C422.024 219.12 432 206.696 432 192c0-15.616-11.24-28.648-26.048-31.448L397.768 136H376v-30.376zM376 152h10.232l8 24H400c8.824 0 16 7.176 16 16s-7.176 16-16 16h-8v8c0 22.528 12 43.728 31.328 55.328l2.904 1.744A87.623 87.623 0 01392 280c-5.4 0-10.728-.656-16-1.624V152zm-80 120v-24h24c13.232 0 24-10.768 24-24v-8h-16v8c0 4.408-3.592 8-8 8h-24v-80h24c4.408 0 8 3.592 8 8v40h16v-40c0-13.232-10.768-24-24-24h-24v-24c0-13.232 10.768-24 24-24h32c4.408 0 8 3.592 8 8v192c0 4.408-3.592 8-8 8h-32c-13.232 0-24-10.768-24-24zm-128-32c0-4.408 3.592-8 8-8h16c4.408 0 8 3.592 8 8v8h-32v-8zm0 24h32v73.616c-3.288-.984-6.68-1.616-10.16-1.616h-2.376c-7.192 0-13.864 2.184-19.464 5.872V264zm32 168c0 4.408-3.592 8-8 8h-16c-4.408 0-8-3.592-8-8v-30.48l32 27.736V432zm95.168 48h-.008a32.647 32.647 0 01-21.376-7.976l-99.072-85.856A19.45 19.45 0 01168 371.464c0-10.736 8.728-19.464 19.464-19.464h2.376c4.648 0 9.144 1.664 12.664 4.68l104.288 89.392 10.416-12.152-10.672-9.152L344 387.312 372.688 416l-54.448 54.448C312.08 476.6 303.888 480 295.168 480zm60.144-104l42.056-42.056c3.832-3.84 8.928-5.944 14.344-5.944 11.184 0 20.288 9.096 20.288 20.28a20.158 20.158 0 01-5.944 14.344L384 404.68 355.312 376zM464 480H331.312l106.064-106.064c6.848-6.848 10.624-15.96 10.624-25.656 0-20.008-16.28-36.28-36.288-36.28-9.688 0-18.808 3.776-25.656 10.632L304 404.68V368c0-21.232 8.2-40.968 23.008-56H352c10.992 0 20.176-7.464 23.008-17.56 5.616.92 11.272 1.56 16.992 1.56 7.408 0 14.624-.808 21.592-2.288C443.824 305.768 464 335.304 464 368v112z"/><path d="M312 104h16v16h-16z"/></svg>