<svg height="512" viewBox="0 0 60 55" width="512" xmlns="http://www.w3.org/2000/svg"><g id="Page-1" fill="none" fill-rule="evenodd"><g id="028---Badge" fill="rgb(0,0,0)" fill-rule="nonzero"><path id="Shape" d="m57.721 39.969c-3.2956007-.1275885-6.5777458-.492197-9.821-1.091 3.664037-7.3910163 2.4115894-16.2736957-3.1532213-22.3634552s-14.2989228-8.13570795-21.9894149-5.1509769c-7.6904922 2.9847309-12.75766861 10.387051-12.7573638 18.6364321.0025294 3.0826674.7232472 6.1223506 2.105 8.878-3.24490126.5990413-6.52872584.9636508-9.826 1.091-.61993568.0249889-1.16050861.4290671-1.35996345 1.0165724-.19945483.5875053-.0166236 1.2371752.45996345 1.6344276l4.432 3.693-2.462 6.577c-.1730683.4591807-.11059391.9739805.16728241 1.3784361.27787632.4044555.73601436.6474194 1.22671759.6505639.06117365.000293.12230191-.0033814.183-.011 6.7247923-.9193056 13.271246-2.8533012 19.416-5.736 3.6912152 1.1040292 7.6247848 1.1040292 11.316 0 6.144473 2.8825155 12.6905689 4.816505 19.415 5.736.0610779.0071217.1225087.0107942.184.011.49151-.00131.9511948-.2433362 1.2304287-.6478264.2792338-.4044901.3425852-.9201193.1695713-1.3801736l-2.466-6.578 4.432-3.693c.476587-.3972524.6594183-1.0469223.4599634-1.6344276-.1994548-.5875053-.7400277-.9915835-1.3599634-1.0165724zm-52.208 12.844 2.253-6.008c1.67939429-.2060358 3.3421801-.5301721 4.976-.97.5226784-.152819.8269921-.6957637.6845615-1.221368-.1424306-.5256042-.6792378-.8406182-1.2075615-.708632-1.6488135.443319-3.32850993.7625448-5.025.955l-3.544-2.953c3.18691631-.179923 6.3577114-.5785277 9.49-1.193 2.0762942 3.2553439 5.0458899 5.8441065 8.554 7.457-5.1723706 2.2345863-10.6106407 3.7947155-16.181 4.642zm6.487-22.813c0-9.9411255 8.0588745-18 18-18s18 8.0588745 18 18-8.0588745 18-18 18c-9.9363282-.0115721-17.9884279-8.0636718-18-18zm40.806 14.86c-1.6964901-.1924552-3.3761865-.511681-5.025-.955-.5283237-.1319862-1.0651309.1830278-1.2075615.708632-.1424306.5256043.1618831 1.068549.6845615 1.221368 1.633931.4393484 3.2966829.763478 4.976.97l2.253 6.008c-5.5703593-.8472845-11.0086294-2.4074137-16.181-4.642 3.5081101-1.6128935 6.4777058-4.2016561 8.554-7.457 3.1322886.6144723 6.3030837 1.013077 9.49 1.193z"/><path id="Shape" d="m38.072 32.577 6.628-6.553c.2692424-.2664545.3648179-.6621668.2468746-1.0221374-.1179433-.3599707-.4291569-.6223997-.8038746-.6778626l-9.152-1.349-4.091-8.412c-.1859515-.3211274-.5289194-.5188474-.9-.5188474s-.7140485.19772-.9.5188474l-4.095 8.412-9.152 1.349c-.3747177.0554629-.6859313.3178919-.8038746.6778626-.1179433.3599706-.0223678.7556829.2468746 1.0221374l6.631 6.553-1.567 9.256c-.0636485.376057.0921599.7555725.4016874.9784238s.718867.2502267 1.0553126.0705762l8.183-4.361 8.182 4.361c.3362573.1796873.7454306.1525383 1.055-.07.3091014-.2233648.4642501-.6030912.4-.979zm-7.6 3.928c-.2946443-.1559191-.6473557-.1559191-.942 0l-6.857 3.655 1.313-7.76c.0543538-.3212952-.0512484-.6489233-.283-.878l-5.575-5.51 7.691-1.133c.3271349-.0480327.6093797-.2546629.754-.552l3.427-7.042 3.427 7.04c.1446203.2973371.4268651.5039673.754.552l7.691 1.133-5.572 5.51c-.2317516.2290767-.3373538.5567048-.283.878l1.313 7.762z"/><path id="Shape" d="m39.8 3.747-1.15 2.77c-.1368327.33011341-.087158.70815016.1303123.99170747.2174702.28355732.569697.42955609.924.383.3543029-.04655609.656855-.27859406.7936877-.60870747l1.15-2.77c.2115251-.51031111-.0306889-1.09547494-.541-1.307s-1.0954749.03068889-1.307.541z"/><path id="Shape" d="m52.176 20.813c.1015282.2451011.2962909.4398132.5414184.5412776s.5205277.1013645.7655816-.0002776l2.771-1.154c.3299348-.13719.5616171-.4399769.6077745-.7943038.0461573-.3543268-.1002226-.7063631-.384-.9235s-.6618397-.2663862-.9917745-.1291962l-2.77 1.151c-.2454176.1017038-.4402808.2968806-.5415899.5424614s-.1007371.5213802.0015899.7665386z"/><path id="Shape" d="m18.9 3.206c-.2451011.10152817-.4398132.29629087-.5412776.54141839s-.1013645.52052773.0002776.76558161l1.15 2.77c.1548963.37359074.5195709.61710177.924.617.1313847-.00028124.2614627-.02609305.383-.076.2451011-.10152817.4398132-.29629087.5412776-.54141839s.1013645-.52052773-.0002776-.76558161l-1.157-2.77c-.2114129-.50655933-.7916289-.74801845-1.3-.541z"/><path id="Shape" d="m3.746 20.2 2.771 1.151c.50873316.2060963 1.08850123-.0363947 1.2990102-.5433179s-.0269353-1.0887764-.5320102-1.3036821l-2.77-1.151c-.32993478-.13719-.70799708-.0879407-.99177449.1291962s-.43015739.5691731-.38400001.9235.27783971.6571138.6077745.7943038z"/><path id="Shape" d="m29 1v5c0 .55228475.4477153 1 1 1s1-.44771525 1-1v-5c0-.55228475-.4477153-1-1-1s-1 .44771525-1 1z"/><path id="Shape" d="m49.8 8.787-3.535 3.535c-.2599566.2510745-.3642126.6228779-.2726972.9725073.0915155.3496295.3645604.6226744.7141899.7141899.3496294.0915154.7214328-.0127406.9725073-.2726972l3.534-3.536c.2701457-.24863985.3823146-.62532269.2921953-.98124258s-.3680328-.6338334-.7239527-.72395272c-.3559199-.09011933-.7326027.02204963-.9812426.2921953z"/><path id="Shape" d="m8.787 8.787c-.39038194.39049985-.39038194 1.02350015 0 1.414l3.535 3.535c.3923789.3789722 1.0160848.3735524 1.4018186-.0121814s.3911536-1.0094397.0121814-1.4018186l-3.536-3.535c-.39038508-.38971594-1.02261492-.38971594-1.413 0z"/><path id="Shape" d="m6 31c.55228475 0 1-.4477153 1-1s-.44771525-1-1-1h-5c-.55228475 0-1 .4477153-1 1s.44771525 1 1 1z"/><path id="Shape" d="m59 29h-5c-.5522847 0-1 .4477153-1 1s.4477153 1 1 1h5c.5522847 0 1-.4477153 1-1s-.4477153-1-1-1z"/></g></g></svg>