<svg viewBox="0 0 512 512" xmlns="http://www.w3.org/2000/svg" xmlns:xlink="http://www.w3.org/1999/xlink"><style>:root&gt;svg{display:none}:root&gt;svg:target{display:block}</style><svg viewBox="0 0 512 512" id="arrow" xmlns="http://www.w3.org/2000/svg"><path d="M506.134 241.843l-.018-.019-104.504-104c-7.829-7.791-20.492-7.762-28.285.068-7.792 7.829-7.762 20.492.067 28.284L443.558 236H20c-11.046 0-20 8.954-20 20s8.954 20 20 20h423.557l-70.162 69.824c-7.829 7.792-7.859 20.455-.067 28.284 7.793 7.831 20.457 7.858 28.285.068l104.504-104 .018-.019c7.833-7.818 7.808-20.522-.001-28.314z"/></svg><svg viewBox="0 0 24 24" id="check" xmlns="http://www.w3.org/2000/svg"><path d="M9.707 19.121a.997.997 0 01-1.414 0l-5.646-5.647a1.5 1.5 0 010-2.121l.707-.707a1.5 1.5 0 012.121 0L9 14.171l9.525-9.525a1.5 1.5 0 012.121 0l.707.707a1.5 1.5 0 010 2.121z"/></svg><svg viewBox="0 0 491.996 491.996" id="chevron" xmlns="http://www.w3.org/2000/svg"><path d="M484.132 124.986l-16.116-16.228c-5.072-5.068-11.82-7.86-19.032-7.86-7.208 0-13.964 2.792-19.036 7.86l-183.84 183.848L62.056 108.554c-5.064-5.068-11.82-7.856-19.028-7.856s-13.968 2.788-19.036 7.856l-16.12 16.128c-10.496 10.488-10.496 27.572 0 38.06l219.136 219.924c5.064 5.064 11.812 8.632 19.084 8.632h.084c7.212 0 13.96-3.572 19.024-8.632l218.932-219.328c5.072-5.064 7.856-12.016 7.864-19.224 0-7.212-2.792-14.068-7.864-19.128z"/></svg><svg viewBox="0 0 32 32" id="chevron-thin" xmlns="http://www.w3.org/2000/svg"><path d="M9.293 5.707l1.414-1.414L22.414 16 10.707 27.707l-1.414-1.414L19.585 16z"/></svg><svg viewBox="0 0 512 512" id="clock" xmlns="http://www.w3.org/2000/svg"><path d="M437.02 74.981C388.668 26.629 324.38 0 256 0S123.332 26.629 74.98 74.981C26.628 123.333 0 187.62 0 256s26.628 132.668 74.98 181.019C123.332 485.37 187.62 512 256 512s132.668-26.629 181.02-74.981C485.372 388.667 512 324.38 512 256s-26.628-132.668-74.98-181.019zM256 461.752c-113.453 0-205.752-92.3-205.752-205.752 0-.186.006-.37.007-.554 0-.047-.007-.092-.007-.139 0-.079.01-.155.012-.233.499-112.093 91.086-203.29 202.944-204.79.234-.011.466-.035.703-.035.142 0 .28.017.421.021.558-.004 1.114-.021 1.673-.021 113.453 0 205.752 92.3 205.752 205.752S369.453 461.752 256 461.752z"/><path d="M412.287 268.36c-8.366 0-15.148-6.782-15.148-15.148s6.782-15.148 15.148-15.148h18.259c-8.576-84.076-76.762-150.773-161.492-157.035v15.895c0 8.366-6.782 15.148-15.148 15.148s-15.148-6.782-15.148-15.148V81.391c-83.476 8.18-149.969 75.102-157.492 158.766h16.352c8.366 0 15.148 6.782 15.148 15.148s-6.782 15.148-15.148 15.148H81.142c6.965 85.011 74.791 153.045 159.71 160.342v-19.203c0-8.366 6.782-15.148 15.148-15.148s15.148 6.782 15.148 15.148v19.203c85.614-7.357 153.853-76.451 159.867-162.435h-18.728zm-94.967-52.258l-50.608 50.609a15.146 15.146 0 01-21.422 0l-88.093-88.093c-5.916-5.915-5.916-15.506 0-21.422 5.915-5.916 15.506-5.916 21.422 0l77.383 77.382L295.9 194.68c5.915-5.916 15.506-5.916 21.422 0 5.914 5.915 5.914 15.507-.002 21.422z"/></svg><svg viewBox="0 0 16 16" id="close" xmlns="http://www.w3.org/2000/svg"><path d="M9.175 8l6.075-6.075A.833.833 0 0014.075.75L8 6.825 1.925.742A.833.833 0 00.75 1.917L6.825 8 .742 14.075a.834.834 0 101.175 1.175L8 9.175l6.075 6.075a.833.833 0 001.175-1.175L9.175 8z"/></svg><svg viewBox="0 0 512 512" id="experience" xmlns="http://www.w3.org/2000/svg"><path d="M285.49 231.609a7.5 7.5 0 100 15 7.5 7.5 0 000-15zM95.891 442.888a7.5 7.5 0 00-7.5 7.5V504.5c0 4.143 3.358 7.5 7.5 7.5s7.5-3.357 7.5-7.5v-54.112a7.5 7.5 0 00-7.5-7.5zM297.347 81.441a7.5 7.5 0 100-15 7.5 7.5 0 000 15zm183.696 94.182l-.002-.001c-18.544-13.085-25.181-13.085-27.362-13.085-9.053 0-16.776 5.719-19.803 13.725-11.792.688-21.176 10.496-21.176 22.458v76.92c-8.729 3.096-15 11.433-15 21.21v53.166a68.964 68.964 0 00-20.642-11.105c-16.543-5.55-75.68-25.409-89.356-30.009a13.052 13.052 0 01-8.912-12.371v-.24c33.416-18.711 56.058-54.461 56.058-95.405v-63.659h14.186c6.893 0 12.5-5.607 12.5-12.5V92.233c0-6.893-5.607-12.5-12.5-12.5h-14.186V74.29c0-11.379-5.054-21.593-13.027-28.537V28.66C321.82 12.856 308.963 0 293.16 0H154.9c-15.803 0-28.66 12.856-28.66 28.66v19.918c-6.266 6.756-10.107 15.792-10.107 25.712v5.443h-14.186c-6.893 0-12.5 5.607-12.5 12.5v32.492c0 6.893 5.607 12.5 12.5 12.5h14.186v63.659c0 40.944 22.641 76.694 56.058 95.405v.24a13.051 13.051 0 01-8.908 12.37c-9.863 3.318-78.599 26.395-89.36 30.01-28.209 9.475-47.162 35.809-47.162 65.53V504.5c0 4.143 3.358 7.5 7.5 7.5s7.5-3.357 7.5-7.5V404.44c0-23.271 14.844-43.891 36.938-51.312l9.694-3.255v65.514c0 4.143 3.358 7.5 7.5 7.5s7.5-3.357 7.5-7.5v-70.55l16.764-5.631v39.539c0 15.791 12.864 28.639 28.676 28.639H302.15c15.812 0 28.676-12.848 28.676-28.639v-39.539l16.764 5.631V504.5c0 4.143 3.358 7.5 7.5 7.5s7.5-3.357 7.5-7.5V349.874l9.696 3.256c10.119 3.395 18.86 9.58 25.416 17.952v41.06c-12.344-1.791-23.716 7.287-23.716 19.752v60.354c0 10.892 8.86 19.752 19.751 19.752h43.719c20.146 0 36.536-16.39 36.536-36.535v-26.788c0-18.364-13.621-33.601-31.29-36.153V296.85c.045-9.453-6.13-18.105-15-21.199V198.72c0-3.703 2.699-6.779 6.232-7.384 3.067 7.926 10.751 13.572 19.747 13.572 2.182 0 8.821 0 27.361-13.085a9.926 9.926 0 004.2-8.098 9.937 9.937 0 00-4.199-8.102zm-146.196-80.89h11.686v27.492h-11.686zm-218.714 27.493h-11.686V94.733h11.686zM141.24 28.66c0-7.532 6.128-13.66 13.66-13.66h138.26c7.532 0 13.66 6.128 13.66 13.66v9.08a37.759 37.759 0 00-9.822-1.3H153.982c-4.469 0-8.758.784-12.742 2.213zm-10.107 172.225V74.29c0-12.6 10.25-22.85 22.849-22.85h143.017c12.599 0 22.849 10.25 22.849 22.85v126.595c0 51.979-42.289 94.268-94.269 94.268h-.178c-51.98-.001-94.268-42.289-94.268-94.268zm55.305 102.081a108.725 108.725 0 0038.963 7.186h.178c13.72 0 26.854-2.549 38.963-7.186 2.294 9.806 9.913 17.87 19.919 20.67-16.419 13.754-37.342 21.466-58.971 21.466s-42.552-7.711-58.971-21.465c9.918-3.066 17.62-10.672 19.919-20.671zm129.386 75.78c0 7.521-6.135 13.639-13.676 13.639H148.831c-7.541 0-13.676-6.118-13.676-13.639v-44.577l15.115-5.076c19.913 19.762 47.049 31.009 75.219 31.009s55.306-11.247 75.219-31.009l15.115 5.076v44.577zM412.7 296.85c0-4.136 3.364-7.5 7.5-7.5 4.086 0 7.521 3.422 7.5 7.5v115.292h-15zm24.754 130.292c11.875 0 21.536 9.66 21.536 21.535v26.788c0 11.875-9.661 21.535-21.536 21.535h-43.719a4.757 4.757 0 01-4.751-4.752v-60.354a4.757 4.757 0 014.751-4.752zm16.225-237.235a6.191 6.191 0 01-6.185-6.186c0-3.41 2.774-6.185 6.147-6.186 1.41.084 5.705 1.853 12.555 6.187-6.848 4.334-11.136 6.102-12.517 6.185zM165.49 231.609a7.5 7.5 0 100 15 7.5 7.5 0 000-15zm125.862-46.15c6.469 0 11.731-5.263 11.731-11.731v-65.556c0-6.469-5.263-11.731-11.731-11.731H275.4c-4.142 0-7.5 3.357-7.5 7.5s3.358 7.5 7.5 7.5h12.683v59.019H162.897v-59.02H240.4c4.142 0 7.5-3.357 7.5-7.5s-3.358-7.5-7.5-7.5h-80.772c-6.469 0-11.731 5.263-11.731 11.731v65.556c0 6.469 5.263 11.731 11.731 11.731h131.724zM153.633 81.441a7.5 7.5 0 100-15 7.5 7.5 0 000 15z"/></svg><svg viewBox="0 0 37 37" id="instagram" xmlns="http://www.w3.org/2000/svg"><path d="M18.5 12.382c-3.369 0-6.118 2.75-6.118 6.118 0 3.369 2.75 6.118 6.118 6.118 3.369 0 6.118-2.75 6.118-6.118 0-3.369-2.75-6.118-6.118-6.118zM36.85 18.5c0-2.534.023-5.044-.12-7.573-.141-2.938-.811-5.545-2.96-7.693-2.152-2.152-4.755-2.818-7.692-2.96-2.534-.143-5.044-.12-7.573-.12-2.534 0-5.045-.023-7.574.12-2.937.142-5.544.812-7.692 2.96C1.086 5.387.42 7.99.279 10.927.135 13.46.158 15.97.158 18.5c0 2.529-.023 5.044.12 7.573.142 2.938.812 5.545 2.96 7.693 2.152 2.153 4.755 2.818 7.692 2.96 2.534.143 5.045.12 7.574.12 2.533 0 5.044.023 7.573-.12 2.937-.142 5.544-.812 7.692-2.96 2.153-2.153 2.819-4.755 2.96-7.693.148-2.529.12-5.04.12-7.573zM18.5 27.914A9.4 9.4 0 019.086 18.5 9.4 9.4 0 0118.5 9.086a9.4 9.4 0 019.414 9.414 9.4 9.4 0 01-9.414 9.414zm9.8-17.015a2.196 2.196 0 01-2.2-2.198c0-1.217.983-2.199 2.2-2.199a2.196 2.196 0 012.031 3.04A2.195 2.195 0 0128.3 10.9z"/></svg><svg viewBox="0 0 512 512" id="location" xmlns="http://www.w3.org/2000/svg"><path d="M256 0C153.755 0 70.573 83.182 70.573 185.426c0 126.888 165.939 313.167 173.004 321.035 6.636 7.391 18.222 7.378 24.846 0 7.065-7.868 173.004-194.147 173.004-321.035C441.425 83.182 358.244 0 256 0zm0 278.719c-51.442 0-93.292-41.851-93.292-93.293S204.559 92.134 256 92.134s93.291 41.851 93.291 93.293-41.85 93.292-93.291 93.292z"/></svg><svg viewBox="0 0 512 512" id="mail" xmlns="http://www.w3.org/2000/svg"><path d="M507.49 101.721L352.211 256 507.49 410.279c2.807-5.867 4.51-12.353 4.51-19.279V121c0-6.927-1.703-13.412-4.51-19.279zM467 76H45c-6.927 0-13.412 1.703-19.279 4.51l198.463 197.463c17.548 17.548 46.084 17.548 63.632 0L486.279 80.51C480.412 77.703 473.927 76 467 76zM4.51 101.721C1.703 107.588 0 114.073 0 121v270c0 6.927 1.703 13.413 4.51 19.279L159.789 256 4.51 101.721z"/><path d="M331 277.211l-21.973 21.973c-29.239 29.239-76.816 29.239-106.055 0L181 277.211 25.721 431.49C31.588 434.297 38.073 436 45 436h422c6.927 0 13.412-1.703 19.279-4.51L331 277.211z"/></svg><svg viewBox="0 0 512.001 512.001" id="partnership" xmlns="http://www.w3.org/2000/svg"><path d="M9.699 257.448l40.805 16.098c5.392 2.126 11.271 1.003 15.476-2.521l32.314 20.379 5.542 3.896c-7.03 11.126-5.229 26.33 5.46 35.393 5.873 4.98 13.336 7.105 20.641 6.309.429 7.679 3.921 14.518 9.604 19.335 5.585 4.736 12.876 7.161 20.64 6.314.432 7.676 3.922 14.513 9.605 19.331 5.637 4.78 12.942 7.154 20.653 6.313.403 7.231 3.646 14.29 9.592 19.332 11.486 9.741 28.765 8.328 38.504-3.157l6.484-7.611 10.927 8.064c18.892 13.945 45.594 2.521 48.057-20.658 19.478 7.078 40.16-6.573 40.46-27.537 18.36 3.452 34.652-9.883 35.675-27.571 23.815 6.361 45.356-17.705 34.84-41.237l29.2-18.755c4.181 4.953 11.129 6.824 17.324 4.38l40.805-16.097c7.854-3.098 11.725-12.009 8.626-19.865l-18.65-47.274a7.5 7.5 0 00-9.729-4.224 7.5 7.5 0 00-4.225 9.729l18.649 47.273a.315.315 0 01-.176.408l-40.805 16.097a.314.314 0 01-.407-.176l-51.28-129.988c-.015-.036-.048-.12.004-.239s.137-.152.172-.167l40.806-16.098a.285.285 0 01.24.004c.118.052.151.136.166.172l19.771 50.114a7.5 7.5 0 009.729 4.224 7.5 7.5 0 004.225-9.729l-19.771-50.113c-3.097-7.854-12.009-11.724-19.863-8.625l-40.807 16.098c-7.291 2.876-11.14 10.7-9.184 18.117l-21.875 8.074a42.585 42.585 0 01-21.369 2.105l-22.112-3.505a7.5 7.5 0 00-2.348 14.815l22.112 3.505a57.627 57.627 0 0028.912-2.849l22.073-8.148 42.686 108.201-32.184 20.671-.546-.403a.03.03 0 00-.007-.005l-62.035-45.782c-1.608-1.187-3.606-1.72-5.904-1.33-31.07 5.283-58.907-5.765-79.386-27.148-6.372-6.653-16.768-7.01-23.671-.812-19.867 17.843-47.63 35.242-67.055 16.781-1.93-1.833-1.944-5.219.987-7.111 24.744-15.917 50.377-38.266 71.005-59.134 5.134-5.195 12.518-7.61 19.765-6.461l28.469 4.513a7.495 7.495 0 008.581-6.233 7.5 7.5 0 00-6.233-8.582l-28.469-4.513c-12.004-1.902-24.257 2.11-32.78 10.732a513.68 513.68 0 01-8.39 8.288 107.059 107.059 0 00-29.796-6.011c-29.804-1.674-32.389-1.99-39.157-1.555a34.945 34.945 0 01-15.631-2.62l-13.218-5.531c1.908-7.374-1.935-15.207-9.197-18.071L72.22 98.971c-7.857-3.1-16.767.77-19.865 8.625L1.074 237.583c-3.105 7.872.75 16.759 8.625 19.865zm126.672 60.373c-4.395 5.184-12.188 5.827-17.374 1.431-5.22-4.426-5.812-12.206-1.441-17.361l18.551-21.774c4.291-5.063 12.105-5.897 17.374-1.431 5.196 4.405 5.838 12.177 1.43 17.374l-.005.006zm30.244 25.646c-4.405 5.195-12.174 5.837-17.373 1.43-5.22-4.426-5.812-12.206-1.441-17.361l18.551-21.774c4.607-5.436 13.146-5.911 18.287-.573.034.035.063.074.097.11 4.234 4.503 4.51 11.583.42 16.407zm30.245 25.644c-4.421 5.215-12.198 5.818-17.373 1.43-5.22-4.425-5.813-12.205-1.442-17.36l18.552-21.775c4.407-5.196 12.229-5.796 17.374-1.43 5.184 4.397 5.825 12.19 1.43 17.374l-.005.006zm48.887 3.752c-.031.038-.058.08-.09.117l-18.552 21.775c-4.395 5.185-12.188 5.826-17.373 1.431-5.185-4.396-5.826-12.189-1.442-17.36l18.552-21.775c4.42-5.214 12.204-5.815 17.373-1.43 5.086 4.31 5.865 12.002 1.532 17.242zM116.832 147.146l12.817 5.363a49.987 49.987 0 0022.381 3.751c5.736-.369 7.651-.107 37.354 1.562a92.065 92.065 0 0118.018 2.819c-14.675 13.252-31.155 26.535-47.662 37.135-10.583 6.794-12.151 21.746-2.984 30.458 12.529 11.905 40.548 25.591 87.41-16.496.84-.754 2.076-.744 2.813.027 22.7 23.694 54.876 36.929 89.623 32.046 3.937 2.767-3.686-2.819 59.628 43.908h.001c6.776 5 8.671 14.834 3.366 21.621-5.039 6.447-14.144 7.696-20.723 2.839-8.888-6.56-2.326-1.567-33.571-25.642a7.5 7.5 0 00-9.157 11.882l25.923 19.974c4.466 5.884 3.934 14.387-1.353 19.661-5.198 5.187-13.754 5.677-19.903 1.141-5.945-4.387-1.006-.628-28.272-21.62a7.499 7.499 0 00-10.518 1.368 7.5 7.5 0 001.367 10.518l22.986 17.697c4.341 5.615 4.128 13.691-.612 19.065-5.1 5.782-14.136 6.587-20.574 1.835-10.345-7.634-5.153-3.692-25.075-19.111a7.5 7.5 0 00-9.181 11.862l15.935 12.333c3.625 5.769 2.915 13.325-1.852 18.311-5.203 5.443-13.872 6.046-20.166 1.401l-10.082-7.44 2.316-2.719c4.618-5.444 7.002-12.495 6.392-19.914-.62-7.515-4.191-14.045-9.562-18.601-5.587-4.737-12.884-7.164-20.646-6.322-.408-7.246-3.731-14.345-9.599-19.323-5.566-4.719-12.632-6.987-19.915-6.392-.243.02-.486.043-.727.07-.014-.24-.022-.48-.042-.721-.477-5.799-2.737-11.17-6.452-15.503l-.067-.081a27.331 27.331 0 00-23.675-9.327c-.422-7.531-3.836-14.437-9.612-19.335-11.495-9.745-28.772-8.323-38.505 3.157l-11.303 13.267-6.607-4.644a6.501 6.501 0 00-.312-.208l-33.286-20.993 43.665-110.679zM15.027 243.089l51.28-129.987a.314.314 0 01.407-.177l40.805 16.098c.161.063.24.246.177.406L56.415 259.417a.31.31 0 01-.406.176l-40.805-16.098a.311.311 0 01-.177-.406z"/></svg><svg viewBox="0 0 384 384" id="phone" xmlns="http://www.w3.org/2000/svg"><path d="M353.188 252.052c-23.51 0-46.594-3.677-68.469-10.906-10.719-3.656-23.896-.302-30.438 6.417l-43.177 32.594c-50.073-26.729-80.917-57.563-107.281-107.26l31.635-42.052c8.219-8.208 11.167-20.198 7.635-31.448-7.26-21.99-10.948-45.063-10.948-68.583C132.146 13.823 118.323 0 101.333 0h-70.52C13.823 0 0 13.823 0 30.813 0 225.563 158.438 384 353.188 384c16.99 0 30.813-13.823 30.813-30.813v-70.323c-.001-16.989-13.824-30.812-30.813-30.812z"/></svg><svg viewBox="0 0 512 512" id="quality" xmlns="http://www.w3.org/2000/svg"><path d="M496.001 206.998h-30.719c-.499 0-.937-.323-1.044-.769-5.232-21.966-13.908-42.896-25.787-62.208-.264-.428-.212-.962.124-1.297l21.781-21.781a15.896 15.896 0 004.686-11.313c0-4.274-1.664-8.292-4.686-11.313l-46.674-46.673a15.888 15.888 0 00-11.313-4.687c-4.273 0-8.29 1.664-11.313 4.686l-21.781 21.781c-.336.336-.871.388-1.297.124-19.312-11.879-40.242-20.555-62.208-25.787-.445-.106-.769-.545-.769-1.043V15.999C305.002 7.177 297.825 0 289.003 0h-66.007c-8.821 0-15.999 7.177-15.999 15.999v30.719c0 .499-.323.937-.769 1.043-21.966 5.233-42.896 13.908-62.208 25.787-.427.265-.963.213-1.297-.124l-21.781-21.781a15.896 15.896 0 00-11.313-4.686 15.891 15.891 0 00-11.313 4.686L51.645 98.318a15.888 15.888 0 00-4.687 11.313c0 4.273 1.664 8.29 4.686 11.313l21.781 21.781c.336.335.388.869.124 1.297-11.879 19.312-20.555 40.242-25.787 62.208-.106.445-.545.769-1.044.769H15.999C7.177 206.998 0 214.175 0 222.997v66.007c0 8.821 7.177 15.999 15.999 15.999h30.719c.499 0 .937.323 1.044.769 5.232 21.966 13.908 42.896 25.787 62.208.264.428.212.962-.124 1.297l-21.781 21.782a15.895 15.895 0 00-4.686 11.313c0 4.274 1.664 8.292 4.686 11.313l46.674 46.673a15.892 15.892 0 0011.313 4.687c4.273 0 8.29-1.664 11.313-4.686l21.781-21.781c.334-.338.87-.39 1.297-.124 19.311 11.878 40.241 20.555 62.21 25.788.444.106.767.545.767 1.043v30.719c0 8.821 7.177 15.999 15.999 15.999h66.007c8.821 0 15.999-7.177 15.999-15.999v-30.719c0-.498.323-.936.769-1.043 21.967-5.233 42.896-13.91 62.208-25.788.426-.265.962-.213 1.297.124l21.781 21.781a15.9 15.9 0 0011.313 4.686c4.274 0 8.292-1.664 11.312-4.686l11.01-11.01a7.483 7.483 0 10-10.582-10.584L403.1 449.776c-.249.249-.534.302-.729.302s-.479-.053-.729-.303l-21.781-21.781c-5.258-5.257-13.369-6.198-19.723-2.289-17.956 11.046-37.415 19.113-57.833 23.978-7.223 1.719-12.269 8.135-12.269 15.602v30.719c0 .569-.463 1.032-1.032 1.032h-66.007a1.033 1.033 0 01-1.032-1.032v-30.719c0-7.467-5.045-13.883-12.267-15.602-20.42-4.865-39.879-12.932-57.835-23.978-6.356-3.907-14.465-2.968-19.723 2.289l-21.781 21.781c-.249.25-.534.303-.729.303s-.479-.053-.729-.303l-46.675-46.674c-.249-.249-.302-.534-.302-.729s.053-.479.303-.729l21.781-21.781c5.256-5.257 6.197-13.367 2.289-19.723-11.047-17.957-19.113-37.416-23.977-57.835-1.721-7.222-8.137-12.267-15.603-12.267H15.999a1.033 1.033 0 01-1.032-1.032v-66.007c0-.569.463-1.032 1.032-1.032h30.719c7.466 0 13.882-5.044 15.603-12.267 4.864-20.419 12.93-39.878 23.977-57.835 3.908-6.356 2.967-14.466-2.289-19.723L62.228 110.36c-.25-.249-.303-.534-.303-.729s.053-.479.303-.729l46.674-46.675c.249-.249.534-.302.729-.302s.479.053.729.303l21.781 21.781c5.258 5.255 13.367 6.197 19.723 2.289 17.957-11.047 37.416-19.113 57.835-23.977 7.222-1.721 12.267-8.137 12.267-15.603V15.999c0-.569.463-1.032 1.032-1.032h66.007c.569 0 1.032.463 1.032 1.032v30.719c0 7.466 5.044 13.882 12.267 15.603 20.419 4.864 39.878 12.93 57.835 23.977 6.356 3.907 14.465 2.968 19.723-2.289l21.781-21.781c.249-.25.534-.303.729-.303s.479.053.729.303l46.675 46.674c.249.249.302.534.302.729s-.053.479-.303.729l-21.781 21.781c-5.256 5.257-6.197 13.367-2.289 19.723 11.047 17.957 19.113 37.416 23.977 57.835 1.721 7.222 8.137 12.267 15.603 12.267h30.719c.569 0 1.032.463 1.032 1.032v66.007c0 .569-.463 1.032-1.032 1.032h-30.719c-7.466 0-13.882 5.044-15.603 12.267-4.864 20.419-12.93 39.878-23.977 57.835-3.908 6.356-2.967 14.466 2.289 19.723l21.781 21.781c.25.249.303.534.303.729s-.053.479-.303.729l-11.136 11.136a7.485 7.485 0 000 10.584 7.487 7.487 0 0010.584 0l11.135-11.136a15.888 15.888 0 004.687-11.313c0-4.273-1.664-8.29-4.686-11.313l-21.781-21.782c-.336-.335-.388-.869-.124-1.297 11.879-19.312 20.555-40.242 25.787-62.208.106-.445.545-.769 1.044-.769h30.719c8.821 0 15.999-7.177 15.999-15.999v-66.007c-.003-8.822-7.18-15.999-16.002-15.999z"/><path d="M105.754 226.031c-4.088-.614-7.892 2.22-8.497 6.308A162.222 162.222 0 0095.524 256c0 88.487 71.989 160.476 160.476 160.476S416.476 344.487 416.476 256 344.487 95.524 256 95.524c-32.758 0-64.266 9.807-91.119 28.361-26.226 18.121-46.295 43.296-58.046 72.825l-.303.768a7.483 7.483 0 1013.922 5.494l.295-.747c10.648-26.758 28.851-49.589 52.639-66.026 24.341-16.819 52.907-25.708 82.612-25.708 80.234 0 145.509 65.275 145.509 145.509S336.234 401.509 256 401.509 110.491 336.234 110.491 256c0-7.19.529-14.414 1.572-21.473a7.482 7.482 0 00-6.309-8.496z"/><path d="M234.74 333.69c.308 0 .616-.004.922-.013 8.637-.248 16.948-4.029 22.804-10.373l83.83-90.798c5.851-6.337 8.885-14.573 8.542-23.191-.344-8.618-4.022-16.587-10.36-22.438-13.081-12.078-33.552-11.261-45.63 1.82l-61.422 66.524-17.557-16.97c-12.804-12.373-33.287-12.022-45.66.78s-12.024 33.283.778 45.658l41.313 39.929a32.132 32.132 0 0022.44 9.072zm-53.77-84.259a17.278 17.278 0 0112.46-5.276c4.337 0 8.68 1.615 12.038 4.858l23.063 22.29a7.534 7.534 0 005.413 2.1 7.484 7.484 0 005.286-2.404l66.615-72.15c6.481-7.019 17.463-7.454 24.48-.977a17.211 17.211 0 015.557 12.039 17.208 17.208 0 01-4.583 12.442l-83.833 90.8a17.423 17.423 0 01-12.236 5.564 17.25 17.25 0 01-12.531-4.86l-41.312-39.929c-6.867-6.64-7.054-17.629-.417-24.497z"/></svg><svg viewBox="0 0 41 36" id="telegram" xmlns="http://www.w3.org/2000/svg"><path d="M40.881 4.051l-6.187 29.265c-.466 2.065-1.684 2.58-3.413 1.606l-9.426-6.967-4.549 4.388c-.503.505-.924.927-1.894.927l.677-9.63 17.47-15.834c.76-.68-.164-1.056-1.18-.377L10.781 21.07l-9.298-2.919c-2.023-.633-2.06-2.029.42-3.002l36.37-14.054c1.684-.633 3.157.377 2.608 2.956z"/></svg><svg viewBox="0 0 350 350" id="user" xmlns="http://www.w3.org/2000/svg"><path d="M175 171.173c38.914 0 70.463-38.318 70.463-85.586C245.463 38.318 235.105 0 175 0s-70.465 38.318-70.465 85.587c0 47.268 31.549 85.586 70.465 85.586zM41.909 301.853c-.012-2.882-.024-.812 0 0zm266.176 2.251c.038-.789.013-5.474 0 0z"/><path d="M307.935 298.397c-1.305-82.342-12.059-105.805-94.352-120.657 0 0-11.584 14.761-38.584 14.761s-38.586-14.761-38.586-14.761C55.018 192.43 43.61 215.545 42.11 295.722c-.123 6.547-.18 6.891-.202 6.131.005 1.424.011 4.058.011 8.651 0 0 19.592 39.496 133.08 39.496 113.486 0 133.08-39.496 133.08-39.496 0-2.951.002-5.003.005-6.399-.022.47-.066-.441-.149-5.708z"/></svg><svg viewBox="0 0 47 47" id="whatsapp" xmlns="http://www.w3.org/2000/svg"><path d="M24.969 44.063c-3.795 0-7.36-.919-10.695-2.754L0 47l5.691-14.274c-1.836-3.336-2.753-6.9-2.753-10.695 0-2.998.58-5.852 1.744-8.56 1.162-2.708 2.73-5.049 4.704-7.022 1.974-1.974 4.315-3.542 7.023-4.705A21.47 21.47 0 0124.969 0c2.998 0 5.852.581 8.56 1.744s5.049 2.731 7.022 4.705c1.974 1.973 3.542 4.314 4.705 7.022A21.47 21.47 0 0147 22.031a21.47 21.47 0 01-1.744 8.56c-1.163 2.708-2.731 5.05-4.705 7.023-1.973 1.973-4.314 3.542-7.022 4.704a21.47 21.47 0 01-8.56 1.745zm7.343-17.626h-2.937l-1.652 1.47c-1.377-.368-3.068-1.554-5.072-3.558-2.004-2.004-3.19-3.695-3.557-5.072l1.468-1.652v-2.938c0-.52-.183-1.04-.55-1.56-.367-.52-.773-.895-1.217-1.125-.443-.23-.757-.252-.94-.068l-2.158 2.157c-1.193 1.193-1.369 3.052-.528 5.577.842 2.524 2.448 4.972 4.82 7.343 2.371 2.372 4.82 3.978 7.343 4.82 2.525.841 4.384.665 5.577-.528l2.157-2.158c.184-.183.161-.497-.068-.94-.23-.444-.605-.85-1.125-1.217-.52-.367-1.04-.55-1.56-.55z"/></svg></svg>