<svg viewBox="0 0 512 512" xmlns="http://www.w3.org/2000/svg" xmlns:xlink="http://www.w3.org/1999/xlink"><style>:root&gt;svg{display:none}:root&gt;svg:target{display:block}</style><svg viewBox="0 0 512 512" id="arrow" xmlns="http://www.w3.org/2000/svg"><path d="M506.134 241.843l-.018-.019-104.504-104c-7.829-7.791-20.492-7.762-28.285.068-7.792 7.829-7.762 20.492.067 28.284L443.558 236H20c-11.046 0-20 8.954-20 20s8.954 20 20 20h423.557l-70.162 69.824c-7.829 7.792-7.859 20.455-.067 28.284 7.793 7.831 20.457 7.858 28.285.068l104.504-104 .018-.019c7.833-7.818 7.808-20.522-.001-28.314z"/></svg><svg viewBox="0 0 24 24" id="check" xmlns="http://www.w3.org/2000/svg"><path d="M9.707 19.121a.997.997 0 01-1.414 0l-5.646-5.647a1.5 1.5 0 010-2.121l.707-.707a1.5 1.5 0 012.121 0L9 14.171l9.525-9.525a1.5 1.5 0 012.121 0l.707.707a1.5 1.5 0 010 2.121z"/></svg><svg viewBox="0 0 491.996 491.996" id="chevron" xmlns="http://www.w3.org/2000/svg"><path d="M484.132 124.986l-16.116-16.228c-5.072-5.068-11.82-7.86-19.032-7.86-7.208 0-13.964 2.792-19.036 7.86l-183.84 183.848L62.056 108.554c-5.064-5.068-11.82-7.856-19.028-7.856s-13.968 2.788-19.036 7.856l-16.12 16.128c-10.496 10.488-10.496 27.572 0 38.06l219.136 219.924c5.064 5.064 11.812 8.632 19.084 8.632h.084c7.212 0 13.96-3.572 19.024-8.632l218.932-219.328c5.072-5.064 7.856-12.016 7.864-19.224 0-7.212-2.792-14.068-7.864-19.128z"/></svg><svg viewBox="0 0 32 32" id="chevron-thin" xmlns="http://www.w3.org/2000/svg"><path d="M9.293 5.707l1.414-1.414L22.414 16 10.707 27.707l-1.414-1.414L19.585 16z"/></svg><svg viewBox="0 0 512 512" id="clock" xmlns="http://www.w3.org/2000/svg"><path d="M437.02 74.981C388.668 26.629 324.38 0 256 0S123.332 26.629 74.98 74.981C26.628 123.333 0 187.62 0 256s26.628 132.668 74.98 181.019C123.332 485.37 187.62 512 256 512s132.668-26.629 181.02-74.981C485.372 388.667 512 324.38 512 256s-26.628-132.668-74.98-181.019zM256 461.752c-113.453 0-205.752-92.3-205.752-205.752 0-.186.006-.37.007-.554 0-.047-.007-.092-.007-.139 0-.079.01-.155.012-.233.499-112.093 91.086-203.29 202.944-204.79.234-.011.466-.035.703-.035.142 0 .28.017.421.021.558-.004 1.114-.021 1.673-.021 113.453 0 205.752 92.3 205.752 205.752S369.453 461.752 256 461.752z"/><path d="M412.287 268.36c-8.366 0-15.148-6.782-15.148-15.148s6.782-15.148 15.148-15.148h18.259c-8.576-84.076-76.762-150.773-161.492-157.035v15.895c0 8.366-6.782 15.148-15.148 15.148s-15.148-6.782-15.148-15.148V81.391c-83.476 8.18-149.969 75.102-157.492 158.766h16.352c8.366 0 15.148 6.782 15.148 15.148s-6.782 15.148-15.148 15.148H81.142c6.965 85.011 74.791 153.045 159.71 160.342v-19.203c0-8.366 6.782-15.148 15.148-15.148s15.148 6.782 15.148 15.148v19.203c85.614-7.357 153.853-76.451 159.867-162.435h-18.728zm-94.967-52.258l-50.608 50.609a15.146 15.146 0 01-21.422 0l-88.093-88.093c-5.916-5.915-5.916-15.506 0-21.422 5.915-5.916 15.506-5.916 21.422 0l77.383 77.382L295.9 194.68c5.915-5.916 15.506-5.916 21.422 0 5.914 5.915 5.914 15.507-.002 21.422z"/></svg><svg viewBox="0 0 16 16" id="close" xmlns="http://www.w3.org/2000/svg"><path d="M9.175 8l6.075-6.075A.833.833 0 0014.075.75L8 6.825 1.925.742A.833.833 0 00.75 1.917L6.825 8 .742 14.075a.834.834 0 101.175 1.175L8 9.175l6.075 6.075a.833.833 0 001.175-1.175L9.175 8z"/></svg><svg viewBox="0 0 37 37" id="instagram" xmlns="http://www.w3.org/2000/svg"><path d="M18.5 12.382c-3.369 0-6.118 2.75-6.118 6.118 0 3.369 2.75 6.118 6.118 6.118 3.369 0 6.118-2.75 6.118-6.118 0-3.369-2.75-6.118-6.118-6.118zM36.85 18.5c0-2.534.023-5.044-.12-7.573-.141-2.938-.811-5.545-2.96-7.693-2.152-2.152-4.755-2.818-7.692-2.96-2.534-.143-5.044-.12-7.573-.12-2.534 0-5.045-.023-7.574.12-2.937.142-5.544.812-7.692 2.96C1.086 5.387.42 7.99.279 10.927.135 13.46.158 15.97.158 18.5c0 2.529-.023 5.044.12 7.573.142 2.938.812 5.545 2.96 7.693 2.152 2.153 4.755 2.818 7.692 2.96 2.534.143 5.045.12 7.574.12 2.533 0 5.044.023 7.573-.12 2.937-.142 5.544-.812 7.692-2.96 2.153-2.153 2.819-4.755 2.96-7.693.148-2.529.12-5.04.12-7.573zM18.5 27.914A9.4 9.4 0 019.086 18.5 9.4 9.4 0 0118.5 9.086a9.4 9.4 0 019.414 9.414 9.4 9.4 0 01-9.414 9.414zm9.8-17.015a2.196 2.196 0 01-2.2-2.198c0-1.217.983-2.199 2.2-2.199a2.196 2.196 0 012.031 3.04A2.195 2.195 0 0128.3 10.9z"/></svg><svg viewBox="0 0 512 512" id="location" xmlns="http://www.w3.org/2000/svg"><path d="M256 0C153.755 0 70.573 83.182 70.573 185.426c0 126.888 165.939 313.167 173.004 321.035 6.636 7.391 18.222 7.378 24.846 0 7.065-7.868 173.004-194.147 173.004-321.035C441.425 83.182 358.244 0 256 0zm0 278.719c-51.442 0-93.292-41.851-93.292-93.293S204.559 92.134 256 92.134s93.291 41.851 93.291 93.293-41.85 93.292-93.291 93.292z"/></svg><svg viewBox="0 0 512 512" id="mail" xmlns="http://www.w3.org/2000/svg"><path d="M507.49 101.721L352.211 256 507.49 410.279c2.807-5.867 4.51-12.353 4.51-19.279V121c0-6.927-1.703-13.412-4.51-19.279zM467 76H45c-6.927 0-13.412 1.703-19.279 4.51l198.463 197.463c17.548 17.548 46.084 17.548 63.632 0L486.279 80.51C480.412 77.703 473.927 76 467 76zM4.51 101.721C1.703 107.588 0 114.073 0 121v270c0 6.927 1.703 13.413 4.51 19.279L159.789 256 4.51 101.721z"/><path d="M331 277.211l-21.973 21.973c-29.239 29.239-76.816 29.239-106.055 0L181 277.211 25.721 431.49C31.588 434.297 38.073 436 45 436h422c6.927 0 13.412-1.703 19.279-4.51L331 277.211z"/></svg><svg viewBox="0 0 384 384" id="phone" xmlns="http://www.w3.org/2000/svg"><path d="M353.188 252.052c-23.51 0-46.594-3.677-68.469-10.906-10.719-3.656-23.896-.302-30.438 6.417l-43.177 32.594c-50.073-26.729-80.917-57.563-107.281-107.26l31.635-42.052c8.219-8.208 11.167-20.198 7.635-31.448-7.26-21.99-10.948-45.063-10.948-68.583C132.146 13.823 118.323 0 101.333 0h-70.52C13.823 0 0 13.823 0 30.813 0 225.563 158.438 384 353.188 384c16.99 0 30.813-13.823 30.813-30.813v-70.323c-.001-16.989-13.824-30.812-30.813-30.812z"/></svg><svg viewBox="0 0 41 36" id="telegram" xmlns="http://www.w3.org/2000/svg"><path d="M40.881 4.051l-6.187 29.265c-.466 2.065-1.684 2.58-3.413 1.606l-9.426-6.967-4.549 4.388c-.503.505-.924.927-1.894.927l.677-9.63 17.47-15.834c.76-.68-.164-1.056-1.18-.377L10.781 21.07l-9.298-2.919c-2.023-.633-2.06-2.029.42-3.002l36.37-14.054c1.684-.633 3.157.377 2.608 2.956z"/></svg><svg viewBox="0 0 350 350" id="user" xmlns="http://www.w3.org/2000/svg"><path d="M175 171.173c38.914 0 70.463-38.318 70.463-85.586C245.463 38.318 235.105 0 175 0s-70.465 38.318-70.465 85.587c0 47.268 31.549 85.586 70.465 85.586zM41.909 301.853c-.012-2.882-.024-.812 0 0zm266.176 2.251c.038-.789.013-5.474 0 0z"/><path d="M307.935 298.397c-1.305-82.342-12.059-105.805-94.352-120.657 0 0-11.584 14.761-38.584 14.761s-38.586-14.761-38.586-14.761C55.018 192.43 43.61 215.545 42.11 295.722c-.123 6.547-.18 6.891-.202 6.131.005 1.424.011 4.058.011 8.651 0 0 19.592 39.496 133.08 39.496 113.486 0 133.08-39.496 133.08-39.496 0-2.951.002-5.003.005-6.399-.022.47-.066-.441-.149-5.708z"/></svg><svg viewBox="0 0 47 47" id="whatsapp" xmlns="http://www.w3.org/2000/svg"><path d="M24.969 44.063c-3.795 0-7.36-.919-10.695-2.754L0 47l5.691-14.274c-1.836-3.336-2.753-6.9-2.753-10.695 0-2.998.58-5.852 1.744-8.56 1.162-2.708 2.73-5.049 4.704-7.022 1.974-1.974 4.315-3.542 7.023-4.705A21.47 21.47 0 0124.969 0c2.998 0 5.852.581 8.56 1.744s5.049 2.731 7.022 4.705c1.974 1.973 3.542 4.314 4.705 7.022A21.47 21.47 0 0147 22.031a21.47 21.47 0 01-1.744 8.56c-1.163 2.708-2.731 5.05-4.705 7.023-1.973 1.973-4.314 3.542-7.022 4.704a21.47 21.47 0 01-8.56 1.745zm7.343-17.626h-2.937l-1.652 1.47c-1.377-.368-3.068-1.554-5.072-3.558-2.004-2.004-3.19-3.695-3.557-5.072l1.468-1.652v-2.938c0-.52-.183-1.04-.55-1.56-.367-.52-.773-.895-1.217-1.125-.443-.23-.757-.252-.94-.068l-2.158 2.157c-1.193 1.193-1.369 3.052-.528 5.577.842 2.524 2.448 4.972 4.82 7.343 2.371 2.372 4.82 3.978 7.343 4.82 2.525.841 4.384.665 5.577-.528l2.157-2.158c.184-.183.161-.497-.068-.94-.23-.444-.605-.85-1.125-1.217-.52-.367-1.04-.55-1.56-.55z"/></svg></svg>