<svg version="1.1" id="Capa_1" xmlns="http://www.w3.org/2000/svg" x="0" y="0" viewBox="0 0 307.029 307.029" xml:space="preserve"><path d="M296.838 145.021c5.628 0 10.191-4.564 10.191-10.192s-4.564-10.191-10.191-10.191h-2.548v-50.96h2.548c5.628 0 10.191-4.563 10.191-10.192 0-5.628-4.564-10.191-10.191-10.191h-2.548V22.296c0-11.963-39.166-21.658-87.477-21.658-48.317 0-87.482 9.695-87.482 21.658v9.849c24.788 1.303 79.41 6.546 79.41 31.342v22.295c7.465 3.03 12.74 10.356 12.74 18.896 0 8.539-5.275 15.864-12.74 18.896v33.551c7.465 3.031 12.74 10.356 12.74 18.896 0 8.539-5.275 15.864-12.74 18.895v33.552c7.465 3.03 12.74 10.355 12.74 18.895 0 7.744-4.449 14.313-10.819 17.767 2.041.034 4.076.074 6.151.074 48.311 0 87.477-9.694 87.477-21.657v-27.182h2.548c5.628 0 10.191-4.563 10.191-10.192 0-5.628-4.564-10.191-10.191-10.191h-2.548v-50.959h2.548zM135.172 23.886a1.724 1.724 0 010-3.183c11.001-4.548 35.489-9.874 71.641-9.874 36.148 0 60.635 5.326 71.635 9.874a1.722 1.722 0 010 3.183c-11 4.549-35.487 9.875-71.635 9.875-36.153 0-60.641-5.326-71.641-9.875z"/><path d="M191.097 237.17h-2.548v-50.96h2.548c5.628 0 10.192-4.563 10.192-10.191 0-5.628-4.564-10.191-10.192-10.191h-2.548v-50.96h2.548c5.628 0 10.192-4.563 10.192-10.191 0-5.628-4.564-10.191-10.192-10.191h-2.548V63.487c0-11.963-39.165-21.658-87.477-21.658h-.427c-48.317 0-87.482 9.695-87.482 21.658v30.999h-2.971C4.563 94.484 0 99.048 0 104.676c0 5.629 4.563 10.191 10.192 10.191h2.971v50.96h-2.971C4.563 165.827 0 170.391 0 176.019c0 5.629 4.563 10.191 10.192 10.191h2.971v50.96h-2.971C4.563 237.17 0 241.733 0 247.361c0 5.629 4.563 10.192 10.192 10.192h2.971v27.181c0 11.964 39.593 21.658 87.91 21.658 48.312 0 87.477-9.694 87.477-21.658v-27.181h2.548c5.628 0 10.192-4.563 10.192-10.192-.001-5.628-4.565-10.191-10.193-10.191zM100.645 52.02c36.148 0 60.635 5.326 71.636 9.875a1.721 1.721 0 010 3.182c-11 4.549-35.488 9.875-71.635 9.875-36.151 0-60.64-5.326-71.64-9.875a1.722 1.722 0 010-3.182c10.999-4.549 35.487-9.875 71.639-9.875z"/></svg>