<svg version="1.1" id="Capa_1" xmlns="http://www.w3.org/2000/svg" x="0" y="0" viewBox="0 0 512 512" xml:space="preserve"><path d="M511.846 263.771a8.148 8.148 0 00-.338-1.671 8.25 8.25 0 00-.649-1.585c-.125-.232-.144-.492-.293-.716-.157-.233-.399-.357-.574-.57a8.448 8.448 0 00-5.733-3.069 7.97 7.97 0 00-.794-.16H341.333V8.533c0-.27-.129-.498-.154-.762a8.213 8.213 0 00-.337-1.671 8.25 8.25 0 00-.649-1.585c-.126-.232-.145-.492-.294-.716-.157-.236-.402-.361-.578-.576a8.757 8.757 0 00-2.563-2.123 8.757 8.757 0 00-3.195-.946C333.299.13 333.071 0 332.8 0h-68.267c-.257 0-.474.125-.726.147a8.99 8.99 0 00-3.285.989c-.234.127-.497.146-.723.298L3.8 172.1c-.236.157-.36.402-.575.577a8.44 8.44 0 00-3.063 5.721A7.799 7.799 0 000 179.2v324.267A8.533 8.533 0 008.533 512h238.941a8.494 8.494 0 002.945-.596c.291-.117.575-.251.851-.401.319-.126.629-.271.929-.437l256-170.667c.235-.157.36-.402.574-.577a8.734 8.734 0 002.115-2.549 8.758 8.758 0 00.949-3.171c.068-.265.122-.532.162-.802v-68.267c.001-.27-.128-.498-.153-.762zM267.117 17.067h37.5l-230.4 153.6h-37.5l230.4-153.6zm57.15 7.411v235.489L85.333 419.256V183.767L324.267 24.478zm-85.334 470.455H17.067v-307.2h51.2V435.2c0 .27.129.498.154.762a9.043 9.043 0 00.987 3.256c.125.232.144.492.293.715.258.349.542.677.851.982.127.139.228.289.363.419a8.402 8.402 0 002.356 1.588c.184.085.371.141.562.212a8.532 8.532 0 002.956.597l.013.003h162.133v51.199zm5.95-68.266h-139.9l230.4-153.6h139.9l-230.4 153.6zm250.05-98.434L256 487.522v-47.756l238.933-159.289v47.756z"/></svg>