<svg id="Capa_1" height="512" width="512" xmlns="http://www.w3.org/2000/svg"><path d="M467.415 90.101c-41.994-6.002-75.514-39.521-81.516-81.516A10 10 0 00376 0H136a10 10 0 00-9.899 8.585C120.1 50.579 86.579 84.099 44.585 90.101A9.999 9.999 0 0036 100v28.13c0 153.553 82.27 306.68 215.039 382.553a9.996 9.996 0 009.922 0C386.265 439.075 476 291.237 476 128.13V100a9.999 9.999 0 00-8.585-9.899zM456 128.13c0 148.676-78.323 290.206-200 362.301C134.323 418.336 56 276.807 56 128.13v-19.78c43.718-9.573 78.626-43.94 88.349-88.35h223.302c9.572 43.717 43.938 78.625 88.349 88.35z"/><path d="M341.855 65.45A10 10 0 00332.95 60h-153.9a9.998 9.998 0 00-8.907 5.454c-14.909 29.211-39.201 53.552-68.399 68.539a10 10 0 00-5.425 9.312c4.769 114.803 63.051 230.946 153.726 295.61a10.006 10.006 0 0011.772.141c84.133-59.703 148.844-171.705 153.885-295.76a10 10 0 00-5.429-9.305c-29.186-14.967-53.483-39.307-68.418-68.541zM266 410.613V291c0-5.522-4.477-10-10-10s-10 4.478-10 10v119.622c-73.599-60.465-123.37-160.562-129.384-261.92 28.548-16.037 52.524-40.105 68.433-68.702H246v121c0 5.522 4.477 10 10 10s10-4.478 10-10V80h60.954c15.93 28.616 39.919 52.689 68.46 68.71C388.51 269.263 324.878 361.79 266 410.613z"/><circle cx="256" cy="246" r="10"/></svg>