<svg id="Capa_1" height="512" viewBox="0 0 511.999 511.999" width="512" xmlns="http://www.w3.org/2000/svg"><path d="M315.82 377.338c-4.143 0-7.5 3.358-7.5 7.5s3.357 7.5 7.5 7.5h20.06c4.143 0 7.5-3.358 7.5-7.5s-3.357-7.5-7.5-7.5zm-27.456-82.774h-20.059c-4.143 0-7.5 3.358-7.5 7.5s3.357 7.5 7.5 7.5h20.059c4.143 0 7.5-3.358 7.5-7.5s-3.357-7.5-7.5-7.5zm81.512-188.219a7.5 7.5 0 00-7.5 7.5v20.06c0 4.142 3.357 7.5 7.5 7.5s7.5-3.358 7.5-7.5v-20.06a7.5 7.5 0 00-7.5-7.5zm-94.178 108.612a7.5 7.5 0 00-7.5 7.5v20.059c0 4.142 3.357 7.5 7.5 7.5s7.5-3.358 7.5-7.5v-20.059a7.5 7.5 0 00-7.5-7.5z"/><path d="M457.636 350.751c4.66-8.18 7.2-17.512 7.2-27.062 0-30.141-24.521-54.663-54.662-54.663h-3.923v-70.082c0-4.142-3.357-7.5-7.5-7.5s-7.5 3.358-7.5 7.5v70.082h-79.325V88.193c21.428 7.781 59.829 7.109 79.325 0v75.75c0 4.142 3.357 7.5 7.5 7.5s7.5-3.358 7.5-7.5V72.896c0-20.378-49.068-20.966-54.663-20.966s-54.663.588-54.663 20.966l.001.026v93.145c-14.91-5.35-35.889-5.589-39.433-5.589-5.595 0-54.663.588-54.663 20.966v87.582H101.826l-.02.001c-30.133.011-54.644 24.528-54.644 54.662a54.309 54.309 0 007.199 27.062C24.359 350.915 0 375.366 0 405.406c0 30.135 24.511 54.651 54.644 54.662l.02.001h305.661c4.143 0 7.5-3.358 7.5-7.5s-3.357-7.5-7.5-7.5h-79.433c10.54-9.98 17.085-24.199 17.085-39.663 0-14.562-5.922-29.083-17.085-39.663h176.444c21.87 0 39.663 17.793 39.663 39.663s-17.793 39.663-39.663 39.663h-62.012c-4.143 0-7.5 3.358-7.5 7.5s3.357 7.5 7.5 7.5h62.012c30.142 0 54.663-24.521 54.663-54.663 0-30.04-24.36-54.492-54.363-54.655zM389.243 72.895c-16.912 8.308-60.468 7.354-75.309 0 16.113-7.926 59.177-7.933 75.309 0zm-131.75 102.583c19.23 0 32.296 3.33 37.655 5.966-16.071 8.036-59.768 7.59-75.309 0 5.357-2.636 18.423-5.966 37.654-5.966zm-39.663 21.264c20.952 7.64 59.203 7.213 79.096.08v72.204H217.83zm-21.679 87.285c21.866 0 39.663 17.788 39.663 39.663 0 21.712-17.684 39.663-39.663 39.663-21.87 0-39.663-17.792-39.663-39.663 0-21.868 17.79-39.663 39.663-39.663zm-37.578-.001a55.92 55.92 0 00-9.585 12.05 55.782 55.782 0 00-9.585-12.05zm-56.747.001c21.866 0 39.662 17.789 39.662 39.663 0 21.87-17.792 39.663-39.662 39.663s-39.663-17.792-39.663-39.663 17.793-39.663 39.663-39.663zM54.663 445.069c-21.87 0-39.663-17.792-39.663-39.663s17.793-39.663 39.663-39.663 39.663 17.793 39.663 39.663c0 21.867-17.789 39.663-39.663 39.663zm37.578.001a55.931 55.931 0 009.585-12.05 55.792 55.792 0 009.585 12.05zm56.747-.001c-21.873 0-39.662-17.795-39.662-39.663 0-21.87 17.792-39.663 39.662-39.663s39.663 17.793 39.663 39.663c0 21.867-17.789 39.663-39.663 39.663zm37.578.001a55.805 55.805 0 009.585-12.05 55.833 55.833 0 009.585 12.05zm96.411-39.664c0 21.87-17.792 39.663-39.662 39.663-21.872 0-39.663-17.794-39.663-39.663 0-21.951 17.897-39.663 39.663-39.663 21.87 0 39.662 17.793 39.662 39.663zm156.192-54.663H243.62a54.634 54.634 0 007.194-27.054c0-14.588-5.95-29.118-17.085-39.663h176.444c21.87 0 39.662 17.793 39.662 39.663.001 10.191-3.766 19.693-10.666 27.054z"/></svg>