<svg height="512" width="512" xmlns="http://www.w3.org/2000/svg"><g id="Icons_copy" data-name="Icons copy"><path d="M472 448h-88v-16a24.028 24.028 0 00-24-24H152a24.028 24.028 0 00-24 24v16H40a24 24 0 000 48h432a24 24 0 000-48zm-328-16a8.009 8.009 0 018-8h208a8.009 8.009 0 018 8v16H144zm328 48H40a8 8 0 010-16h432a8 8 0 010 16z"/><path d="M167.514 127.514h48v16.001h-48z" transform="rotate(-45 191.505 135.56)"/><path d="M198.142 150.142h32.001v16.001h-32.001z" transform="rotate(-45 214.13 158.194)"/><path d="M320 208h16V48a8 8 0 00-2.343-5.657l-24-24A8 8 0 00304 16H96a8 8 0 00-5.657 2.343l-24 24A8 8 0 0064 48v272a8 8 0 002.343 5.657l24 24A8 8 0 0096 352h120v-16H99.313L80 316.687V51.313L99.313 32h201.374L320 51.313z"/><path d="M96 48h16v16H96zm192 0h16v16h-16zM96 304h16v16H96zm392-24H376a8 8 0 00-5.657 2.343L356.686 296H328a8 8 0 00-8 8h-40a8 8 0 00-5.657 2.343l-36 36a24.971 24.971 0 0035.314 35.314L299.313 352H320a8 8 0 008 8h160a8 8 0 008-8v-64a8 8 0 00-8-8zm-192 56a8 8 0 00-5.657 2.343l-28 28a8.97 8.97 0 11-12.686-12.686L283.313 320H320v16zm56 8h-16v-32h16zm80 0h-32v-8a8.009 8.009 0 018-8h16a8.009 8.009 0 018 8zm48 0h-32v-8a24.028 24.028 0 00-24-24h-16a24.028 24.028 0 00-24 24v8h-16v-36.686L379.313 296H480zm-216-48v-64h24v-16h-24v-16h24a8 8 0 008-8V96a8 8 0 00-8-8H112a8 8 0 00-8 8v96a8 8 0 008 8h136v16H112v16h136v64zM120 184v-80h160v80h-16v-16h-16v16z"/><path d="M215.846 247.436h16v33.129h-16z" transform="rotate(-14.98 223.795 263.741)"/><path d="M182.597 241.524h15.999v58.387h-15.999z" transform="rotate(-30 190.58 270.723)"/><path d="M143.999 234.745H160v90.51h-16.001z" transform="rotate(-45 151.96 280.049)"/><path d="M128 305.481h16.001v18.475H128z" transform="rotate(-60 136.008 314.733)"/><path d="M112 376h88v16h-88zm200 0h80v16h-80z"/><path d="M369.22 239.632h46.295v16.001H369.22z" transform="rotate(-45 392.352 247.723)"/><path d="M291.503 243.503h81.99v15.999h-81.99z" transform="rotate(-60 332.49 251.51)"/><path d="M271.59 256h33.129v16H271.59z" transform="rotate(-74.99 288.218 263.967)"/><path d="M408 376h16v16h-16zm-328 0h16v16H80z"/></g></svg>