<svg id="outline" height="512" viewBox="0 0 64 64" width="512" xmlns="http://www.w3.org/2000/svg"><path d="M63.707 50.979l-13.8-13.8a1.989 1.989 0 01.215-.147l3.678-1.957a4.074 4.074 0 001.757-5.41l-1.832-3.747a2.078 2.078 0 010-1.836l1.832-3.747a4.074 4.074 0 00-1.757-5.41l-3.682-1.955a2.075 2.075 0 01-1.078-1.485l-.721-4.108a4.074 4.074 0 00-4.6-3.344l-4.13.585a2.1 2.1 0 01-1.746-.567l-3-2.9a4.073 4.073 0 00-5.688 0l-3 2.9a2.1 2.1 0 01-1.746.567l-4.131-.585a4.076 4.076 0 00-4.6 3.344l-.721 4.108a2.073 2.073 0 01-1.079 1.485L10.2 14.925a4.074 4.074 0 00-1.757 5.41l1.832 3.747a2.078 2.078 0 010 1.836l-1.836 3.747a4.074 4.074 0 001.757 5.41l3.686 1.955a2.079 2.079 0 01.214.147l-13.8 13.8a1 1 0 00.482 1.682l8.583 1.981 1.981 8.583a1 1 0 001.682.482l15.483-15.484.649.629a4.074 4.074 0 005.688 0l.649-.629 15.486 15.486a1 1 0 001.682-.482l1.981-8.583 8.583-1.981a1 1 0 00.482-1.682zM12.882 61.017l-1.715-7.434a1 1 0 00-.75-.75l-7.434-1.715 12.071-12.071.627 3.576a4.078 4.078 0 004.6 3.344l4.13-.585a2.106 2.106 0 011.746.567l.911.881zm17.665-13.605l-1.345-1.3-1.654-1.6a4.065 4.065 0 00-2.835-1.152 4.237 4.237 0 00-.581.041L20 43.986a2.078 2.078 0 01-2.351-1.709l-.721-4.108a4.078 4.078 0 00-.5-1.322 1.022 1.022 0 00-.079-.14 4.05 4.05 0 00-1.528-1.444l-3.685-1.955a2.081 2.081 0 01-.9-2.764l1.832-3.744a4.074 4.074 0 000-3.594l-1.832-3.747a2.081 2.081 0 01.9-2.764l3.684-1.955a4.062 4.062 0 002.112-2.906l.721-4.108A2.074 2.074 0 0120 6.014l4.131.585a4.07 4.07 0 003.416-1.111l3-2.9a2.08 2.08 0 012.906 0l3 2.9A4.069 4.069 0 0039.868 6.6L44 6.014a2.077 2.077 0 012.351 1.709l.721 4.108a4.064 4.064 0 002.111 2.906l3.685 1.955a2.081 2.081 0 01.9 2.764L51.932 23.2a4.074 4.074 0 000 3.594l1.832 3.747a2.081 2.081 0 01-.9 2.764L49.18 35.26a4.062 4.062 0 00-2.112 2.906l-.721 4.108A2.079 2.079 0 0144 43.986l-4.133-.586a4.071 4.071 0 00-3.416 1.111l-3 2.9a2.08 2.08 0 01-2.904.001zm23.036 5.421a1 1 0 00-.75.75l-1.715 7.434L36.931 46.83l.91-.881a2.11 2.11 0 011.746-.567l4.131.585a4.077 4.077 0 004.6-3.344l.627-3.576 12.072 12.071z"/><path d="M47 25a14.991 14.991 0 00-3.632-9.785 1 1 0 10-1.514 1.3 12.985 12.985 0 11-2.624-2.326 1 1 0 101.114-1.66A15 15 0 1047 25z"/><path d="M37.775 20.312l-7.792 8.206-3.732-4.252a1 1 0 10-1.5 1.318l4.449 5.075a1 1 0 00.732.341h.02a1 1 0 00.725-.312l8.545-9a1 1 0 10-1.45-1.376z"/></svg>