<?xml version="1.0" encoding="iso-8859-1"?>
<!-- Generator: Adobe Illustrator 19.0.0, SVG Export Plug-In . SVG Version: 6.00 Build 0)  -->
<svg version="1.1" id="Capa_1" xmlns="http://www.w3.org/2000/svg" xmlns:xlink="http://www.w3.org/1999/xlink" x="0px" y="0px"
	 viewBox="0 0 512 512" style="enable-background:new 0 0 512 512;" xml:space="preserve">
<g>
	<g>
		<path d="M511.846,263.771c-0.054-0.567-0.167-1.127-0.338-1.671c-0.161-0.549-0.378-1.081-0.649-1.585
			c-0.125-0.232-0.144-0.492-0.293-0.716c-0.157-0.233-0.399-0.357-0.574-0.57c-1.425-1.747-3.489-2.852-5.733-3.069
			c-0.262-0.067-0.527-0.12-0.794-0.16H341.333V8.533c0-0.27-0.129-0.498-0.154-0.762c-0.054-0.567-0.167-1.127-0.337-1.671
			c-0.161-0.549-0.378-1.081-0.649-1.585c-0.126-0.232-0.145-0.492-0.294-0.716c-0.157-0.236-0.402-0.361-0.578-0.576
			c-0.711-0.865-1.581-1.586-2.563-2.123c-0.995-0.517-2.079-0.838-3.195-0.946C333.299,0.13,333.071,0,332.8,0h-68.267
			c-0.257,0-0.474,0.125-0.726,0.147c-1.148,0.116-2.263,0.451-3.285,0.989c-0.234,0.127-0.497,0.146-0.723,0.298L3.8,172.1
			c-0.236,0.157-0.36,0.402-0.575,0.577c-0.45,0.365-0.86,0.777-1.223,1.228c-1.04,1.285-1.68,2.847-1.84,4.493
			C0.094,178.662,0.04,178.93,0,179.2v324.267C0,508.18,3.82,512,8.533,512h238.933l0.003,0l0.005,0
			c1.009-0.022,2.007-0.224,2.945-0.596c0.291-0.117,0.575-0.251,0.851-0.401c0.319-0.126,0.629-0.271,0.929-0.437l256-170.667
			c0.235-0.157,0.36-0.402,0.574-0.577c0.861-0.707,1.579-1.572,2.115-2.549c0.515-0.987,0.837-2.063,0.949-3.171
			c0.068-0.265,0.122-0.532,0.162-0.802v-68.267C512,264.263,511.871,264.035,511.846,263.771z M267.117,17.067h37.5l-230.4,153.6
			h-37.5L267.117,17.067z M324.267,24.478v235.489L85.333,419.256V183.767L324.267,24.478z M238.933,494.933H17.067v-307.2h51.2
			V435.2c0,0.27,0.129,0.498,0.154,0.762c0.12,1.138,0.455,2.243,0.987,3.256c0.125,0.232,0.144,0.492,0.293,0.715
			c0.258,0.349,0.542,0.677,0.851,0.982c0.127,0.139,0.228,0.289,0.363,0.419c0.689,0.659,1.486,1.196,2.356,1.588
			c0.184,0.085,0.371,0.141,0.562,0.212c0.942,0.373,1.943,0.575,2.956,0.597l0.013,0.003h162.133V494.933z M244.883,426.667h-139.9
			l230.4-153.6h139.9L244.883,426.667z M494.933,328.233L256,487.522v-47.756l238.933-159.289V328.233z"/>
	</g>
</g>
<g>
</g>
<g>
</g>
<g>
</g>
<g>
</g>
<g>
</g>
<g>
</g>
<g>
</g>
<g>
</g>
<g>
</g>
<g>
</g>
<g>
</g>
<g>
</g>
<g>
</g>
<g>
</g>
<g>
</g>
</svg>
