<svg id="Capa_1" enable-background="new 0 0 512 512" height="512" viewBox="0 0 512 512" width="512" xmlns="http://www.w3.org/2000/svg"><path d="m467.415 90.101c-41.994-6.002-75.514-39.521-81.516-81.516-.704-4.926-4.923-8.585-9.899-8.585h-240c-4.976 0-9.195 3.659-9.899 8.585-6.001 41.994-39.522 75.514-81.516 81.516-4.926.704-8.585 4.922-8.585 9.899v28.13c0 153.553 82.27 306.68 215.039 382.553 1.537.878 3.249 1.317 4.961 1.317s3.424-.439 4.961-1.317c125.304-71.608 215.039-219.446 215.039-382.553v-28.13c0-4.977-3.659-9.195-8.585-9.899zm-11.415 38.029c0 148.676-78.323 290.206-200 362.301-121.677-72.095-200-213.624-200-362.301v-19.78c43.718-9.573 78.626-43.94 88.349-88.35h223.302c9.572 43.717 43.938 78.625 88.349 88.35z"/><path d="m341.855 65.45c-1.709-3.345-5.149-5.45-8.905-5.45h-153.9c-3.758 0-7.199 2.106-8.907 5.454-14.909 29.211-39.201 53.552-68.399 68.539-3.469 1.78-5.587 5.415-5.425 9.312 4.769 114.803 63.051 230.946 153.726 295.61 3.53 2.619 8.268 2.628 11.772.141 84.133-59.703 148.844-171.705 153.885-295.76.158-3.895-1.96-7.526-5.429-9.305-29.186-14.967-53.483-39.307-68.418-68.541zm-75.855 345.163v-119.613c0-5.522-4.477-10-10-10s-10 4.478-10 10v119.622c-73.599-60.465-123.37-160.562-129.384-261.92 28.548-16.037 52.524-40.105 68.433-68.702h60.951v121c0 5.522 4.477 10 10 10s10-4.478 10-10v-121h60.954c15.93 28.616 39.919 52.689 68.46 68.71-6.904 120.553-70.536 213.08-129.414 261.903z"/><circle cx="256" cy="246" r="10"/></svg>