<svg version="1.1" id="Capa_1" xmlns="http://www.w3.org/2000/svg" x="0" y="0" viewBox="0 0 512 512" xml:space="preserve"><path d="M437.02 74.981C388.668 26.629 324.38 0 256 0S123.332 26.629 74.98 74.981C26.628 123.333 0 187.62 0 256s26.628 132.668 74.98 181.019C123.332 485.37 187.62 512 256 512s132.668-26.629 181.02-74.981C485.372 388.667 512 324.38 512 256s-26.628-132.668-74.98-181.019zM256 461.752c-113.453 0-205.752-92.3-205.752-205.752 0-.186.006-.37.007-.554 0-.047-.007-.092-.007-.139 0-.079.01-.155.012-.233.499-112.093 91.086-203.29 202.944-204.79.234-.011.466-.035.703-.035.142 0 .28.017.421.021.558-.004 1.114-.021 1.673-.021 113.453 0 205.752 92.3 205.752 205.752S369.453 461.752 256 461.752z"/><path d="M412.287 268.36c-8.366 0-15.148-6.782-15.148-15.148s6.782-15.148 15.148-15.148h18.259c-8.576-84.076-76.762-150.773-161.492-157.035v15.895c0 8.366-6.782 15.148-15.148 15.148s-15.148-6.782-15.148-15.148V81.391c-83.476 8.18-149.969 75.102-157.492 158.766h16.352c8.366 0 15.148 6.782 15.148 15.148s-6.782 15.148-15.148 15.148H81.142c6.965 85.011 74.791 153.045 159.71 160.342v-19.203c0-8.366 6.782-15.148 15.148-15.148s15.148 6.782 15.148 15.148v19.203c85.614-7.357 153.853-76.451 159.867-162.435h-18.728zm-94.967-52.258l-50.608 50.609a15.146 15.146 0 01-21.422 0l-88.093-88.093c-5.916-5.915-5.916-15.506 0-21.422 5.915-5.916 15.506-5.916 21.422 0l77.383 77.382L295.9 194.68c5.915-5.916 15.506-5.916 21.422 0 5.914 5.915 5.914 15.507-.002 21.422z"/></svg>