<svg id="Layer_1" height="512" width="512" xmlns="http://www.w3.org/2000/svg"><path d="M285.49 231.609a7.5 7.5 0 100 15 7.5 7.5 0 000-15zM95.891 442.888a7.5 7.5 0 00-7.5 7.5V504.5c0 4.143 3.358 7.5 7.5 7.5s7.5-3.357 7.5-7.5v-54.112a7.5 7.5 0 00-7.5-7.5zM297.347 81.441a7.5 7.5 0 100-15 7.5 7.5 0 000 15zm183.696 94.182l-.002-.001c-18.544-13.085-25.181-13.085-27.362-13.085-9.053 0-16.776 5.719-19.803 13.725-11.792.688-21.176 10.496-21.176 22.458v76.92c-8.729 3.096-15 11.433-15 21.21v53.166a68.964 68.964 0 00-20.642-11.105c-16.543-5.55-75.68-25.409-89.356-30.009a13.052 13.052 0 01-8.912-12.371v-.24c33.416-18.711 56.058-54.461 56.058-95.405v-63.659h14.186c6.893 0 12.5-5.607 12.5-12.5V92.233c0-6.893-5.607-12.5-12.5-12.5h-14.186V74.29c0-11.379-5.054-21.593-13.027-28.537V28.66C321.82 12.856 308.963 0 293.16 0H154.9c-15.803 0-28.66 12.856-28.66 28.66v19.918c-6.266 6.756-10.107 15.792-10.107 25.712v5.443h-14.186c-6.893 0-12.5 5.607-12.5 12.5v32.492c0 6.893 5.607 12.5 12.5 12.5h14.186v63.659c0 40.944 22.641 76.694 56.058 95.405v.24a13.051 13.051 0 01-8.908 12.37c-9.863 3.318-78.599 26.395-89.36 30.01-28.209 9.475-47.162 35.809-47.162 65.53V504.5c0 4.143 3.358 7.5 7.5 7.5s7.5-3.357 7.5-7.5V404.44c0-23.271 14.844-43.891 36.938-51.312l9.694-3.255v65.514c0 4.143 3.358 7.5 7.5 7.5s7.5-3.357 7.5-7.5v-70.55l16.764-5.631v39.539c0 15.791 12.864 28.639 28.676 28.639H302.15c15.812 0 28.676-12.848 28.676-28.639v-39.539l16.764 5.631V504.5c0 4.143 3.358 7.5 7.5 7.5s7.5-3.357 7.5-7.5V349.874l9.696 3.256c10.119 3.395 18.86 9.58 25.416 17.952v41.06c-12.344-1.791-23.716 7.287-23.716 19.752v60.354c0 10.892 8.86 19.752 19.751 19.752h43.719c20.146 0 36.536-16.39 36.536-36.535v-26.788c0-18.364-13.621-33.601-31.29-36.153V296.85c.045-9.453-6.13-18.105-15-21.199V198.72c0-3.703 2.699-6.779 6.232-7.384 3.067 7.926 10.751 13.572 19.747 13.572 2.182 0 8.821 0 27.361-13.085a9.926 9.926 0 004.2-8.098 9.937 9.937 0 00-4.199-8.102zm-146.196-80.89h11.686v27.492h-11.686zm-218.714 27.493h-11.686V94.733h11.686zM141.24 28.66c0-7.532 6.128-13.66 13.66-13.66h138.26c7.532 0 13.66 6.128 13.66 13.66v9.08a37.759 37.759 0 00-9.822-1.3H153.982c-4.469 0-8.758.784-12.742 2.213zm-10.107 172.225V74.29c0-12.6 10.25-22.85 22.849-22.85h143.017c12.599 0 22.849 10.25 22.849 22.85v126.595c0 51.979-42.289 94.268-94.269 94.268h-.178c-51.98-.001-94.268-42.289-94.268-94.268zm55.305 102.081a108.725 108.725 0 0038.963 7.186h.178c13.72 0 26.854-2.549 38.963-7.186 2.294 9.806 9.913 17.87 19.919 20.67-16.419 13.754-37.342 21.466-58.971 21.466s-42.552-7.711-58.971-21.465c9.918-3.066 17.62-10.672 19.919-20.671zm129.386 75.78c0 7.521-6.135 13.639-13.676 13.639H148.831c-7.541 0-13.676-6.118-13.676-13.639v-44.577l15.115-5.076c19.913 19.762 47.049 31.009 75.219 31.009s55.306-11.247 75.219-31.009l15.115 5.076v44.577zM412.7 296.85c0-4.136 3.364-7.5 7.5-7.5 4.086 0 7.521 3.422 7.5 7.5v115.292h-15zm24.754 130.292c11.875 0 21.536 9.66 21.536 21.535v26.788c0 11.875-9.661 21.535-21.536 21.535h-43.719a4.757 4.757 0 01-4.751-4.752v-60.354a4.757 4.757 0 014.751-4.752zm16.225-237.235a6.191 6.191 0 01-6.185-6.186c0-3.41 2.774-6.185 6.147-6.186 1.41.084 5.705 1.853 12.555 6.187-6.848 4.334-11.136 6.102-12.517 6.185zM165.49 231.609a7.5 7.5 0 100 15 7.5 7.5 0 000-15zm125.862-46.15c6.469 0 11.731-5.263 11.731-11.731v-65.556c0-6.469-5.263-11.731-11.731-11.731H275.4c-4.142 0-7.5 3.357-7.5 7.5s3.358 7.5 7.5 7.5h12.683v59.019H162.897v-59.02H240.4c4.142 0 7.5-3.357 7.5-7.5s-3.358-7.5-7.5-7.5h-80.772c-6.469 0-11.731 5.263-11.731 11.731v65.556c0 6.469 5.263 11.731 11.731 11.731h131.724zM153.633 81.441a7.5 7.5 0 100-15 7.5 7.5 0 000 15z"/></svg>