<svg width="37" height="37" viewBox="0 0 37 37" fill="none" xmlns="http://www.w3.org/2000/svg">
<path d="M18.5 12.3817C15.1311 12.3817 12.3817 15.1311 12.3817 18.5C12.3817 21.8689 15.1311 24.6183 18.5 24.6183C21.8689 24.6183 24.6183 21.8689 24.6183 18.5C24.6183 15.1311 21.8689 12.3817 18.5 12.3817ZM36.8502 18.5C36.8502 15.9664 36.8731 13.4558 36.7309 10.9268C36.5886 7.98926 35.9185 5.38223 33.7704 3.23418C31.6178 1.08154 29.0153 0.416017 26.0778 0.273731C23.5442 0.131446 21.0336 0.154396 18.5046 0.154396C15.971 0.154396 13.4604 0.131446 10.9313 0.273731C7.99385 0.416017 5.38681 1.08613 3.23877 3.23418C1.08613 5.38682 0.420602 7.98926 0.278317 10.9268C0.136032 13.4604 0.158981 15.971 0.158981 18.5C0.158981 21.029 0.136032 23.5442 0.278317 26.0732C0.420602 29.0107 1.09072 31.6178 3.23877 33.7658C5.3914 35.9185 7.99385 36.584 10.9313 36.7263C13.4649 36.8686 15.9756 36.8456 18.5046 36.8456C21.0382 36.8456 23.5488 36.8686 26.0778 36.7263C29.0153 36.584 31.6224 35.9139 33.7704 33.7658C35.9231 31.6132 36.5886 29.0107 36.7309 26.0732C36.8777 23.5442 36.8502 21.0336 36.8502 18.5V18.5ZM18.5 27.9138C13.2905 27.9138 9.08623 23.7095 9.08623 18.5C9.08623 13.2905 13.2905 9.08623 18.5 9.08623C23.7095 9.08623 27.9138 13.2905 27.9138 18.5C27.9138 23.7095 23.7095 27.9138 18.5 27.9138ZM28.2993 10.8992C27.083 10.8992 26.1008 9.91699 26.1008 8.70068C26.1008 7.48438 27.083 6.50215 28.2993 6.50215C29.5156 6.50215 30.4979 7.48438 30.4979 8.70068C30.4982 8.9895 30.4416 9.27555 30.3312 9.54246C30.2209 9.80936 30.0589 10.0519 29.8547 10.2561C29.6505 10.4603 29.408 10.6222 29.1411 10.7326C28.8742 10.843 28.5881 10.8996 28.2993 10.8992V10.8992Z" fill="black"/>
</svg>
