<svg width="47" height="47" viewBox="0 0 47 47" fill="none" xmlns="http://www.w3.org/2000/svg">
<path d="M24.9688 44.0625C21.1745 44.0625 17.6097 43.1445 14.2744 41.3086L0 47L5.69141 32.7256C3.85547 29.3903 2.9375 25.8255 2.9375 22.0312C2.9375 19.0326 3.51888 16.1792 4.68164 13.4712C5.8444 10.7632 7.4126 8.42236 9.38623 6.44873C11.3599 4.4751 13.7007 2.9069 16.4087 1.74414C19.1167 0.58138 21.9701 0 24.9688 0C27.9674 0 30.8208 0.58138 33.5288 1.74414C36.2368 2.9069 38.5776 4.4751 40.5513 6.44873C42.5249 8.42236 44.0931 10.7632 45.2559 13.4712C46.4186 16.1792 47 19.0326 47 22.0312C47 25.0299 46.4186 27.8833 45.2559 30.5913C44.0931 33.2993 42.5249 35.6401 40.5513 37.6138C38.5776 39.5874 36.2368 41.1556 33.5288 42.3184C30.8208 43.4811 27.9674 44.0625 24.9688 44.0625ZM32.3125 26.4375H29.375L27.7227 27.9062C26.3457 27.5391 24.6551 26.3534 22.6509 24.3491C20.6466 22.3449 19.4609 20.6543 19.0938 19.2773L20.5625 17.625V14.6875C20.5625 14.1673 20.3789 13.6471 20.0117 13.127C19.6445 12.6068 19.2391 12.2319 18.7954 12.0024C18.3517 11.7729 18.0381 11.75 17.8545 11.9336L15.6973 14.0908C14.5039 15.2842 14.328 17.1431 15.1694 19.6675C16.0109 22.1919 17.6174 24.6398 19.9888 27.0112C22.3602 29.3826 24.8081 30.9891 27.3325 31.8306C29.8569 32.672 31.7158 32.4961 32.9092 31.3027L35.0664 29.1455C35.25 28.9619 35.2271 28.6483 34.9976 28.2046C34.7681 27.7609 34.3932 27.3555 33.873 26.9883C33.3529 26.6211 32.8327 26.4375 32.3125 26.4375Z" fill="black"/>
</svg>
